<svg xmlns="http://www.w3.org/2000/svg" version="1.1" x="0" y="0" width="310" height="310" viewBox="0" enable-background="new 0 0 310 310" xml:space="preserve"><path fill="#ffffff" d="M0 0v310h310V0H0zM283.61 199.85c-0.11 19.36-8.56 34.26-25.36 44.06 -26.02 15.19-52.07 30.35-78.26 45.25 -16.33 9.3-33.15 9.44-49.51 0.19 -26.66-15.08-53.19-30.41-79.57-45.97 -15.64-9.23-23.93-23.36-24.43-41.53 -0.42-15.65-0.09-31.32-0.09-46.98 0-14.99-0.12-29.99 0.02-44.98 0.19-19.43 8.79-34.17 25.55-43.94 26.03-15.18 52.08-30.33 78.29-45.2 16.35-9.28 33.15-9.3 49.5-0.03 26.22 14.86 52.26 30.03 78.29 45.21 16.96 9.89 25.48 24.89 25.58 44.46C283.76 140.21 283.79 170.03 283.61 199.85z"/></svg>